<?xml version="1.0" standalone="no"?><svg xmlns="http://www.w3.org/2000/svg" viewBox="0 0 1440 320"><path fill="#0d421b" fill-opacity="1" d="M0,96L9.6,101.3C19.2,107,38,117,58,106.7C76.8,96,96,64,115,58.7C134.4,53,154,75,173,117.3C192,160,211,224,230,213.3C249.6,203,269,117,288,106.7C307.2,96,326,160,346,192C364.8,224,384,224,403,202.7C422.4,181,442,139,461,133.3C480,128,499,160,518,160C537.6,160,557,128,576,122.7C595.2,117,614,139,634,165.3C652.8,192,672,224,691,213.3C710.4,203,730,149,749,128C768,107,787,117,806,144C825.6,171,845,213,864,218.7C883.2,224,902,192,922,154.7C940.8,117,960,75,979,69.3C998.4,64,1018,96,1037,96C1056,96,1075,64,1094,90.7C1113.6,117,1133,203,1152,240C1171.2,277,1190,267,1210,266.7C1228.8,267,1248,277,1267,277.3C1286.4,277,1306,267,1325,229.3C1344,192,1363,128,1382,96C1401.6,64,1421,64,1430,64L1440,64L1440,320L1430.4,320C1420.8,320,1402,320,1382,320C1363.2,320,1344,320,1325,320C1305.6,320,1286,320,1267,320C1248,320,1229,320,1210,320C1190.4,320,1171,320,1152,320C1132.8,320,1114,320,1094,320C1075.2,320,1056,320,1037,320C1017.6,320,998,320,979,320C960,320,941,320,922,320C902.4,320,883,320,864,320C844.8,320,826,320,806,320C787.2,320,768,320,749,320C729.6,320,710,320,691,320C672,320,653,320,634,320C614.4,320,595,320,576,320C556.8,320,538,320,518,320C499.2,320,480,320,461,320C441.6,320,422,320,403,320C384,320,365,320,346,320C326.4,320,307,320,288,320C268.8,320,250,320,230,320C211.2,320,192,320,173,320C153.6,320,134,320,115,320C96,320,77,320,58,320C38.4,320,19,320,10,320L0,320Z"></path></svg>