<?xml version="1.0" standalone="no"?><svg xmlns="http://www.w3.org/2000/svg" viewBox="0 0 1440 320"><path fill="#00cba9" fill-opacity="1" d="M0,224L9.6,240C19.2,256,38,288,58,256C76.8,224,96,128,115,117.3C134.4,107,154,181,173,176C192,171,211,85,230,58.7C249.6,32,269,64,288,74.7C307.2,85,326,75,346,96C364.8,117,384,171,403,160C422.4,149,442,75,461,37.3C480,0,499,0,518,21.3C537.6,43,557,85,576,138.7C595.2,192,614,256,634,250.7C652.8,245,672,171,691,160C710.4,149,730,203,749,240C768,277,787,299,806,277.3C825.6,256,845,192,864,144C883.2,96,902,64,922,85.3C940.8,107,960,181,979,218.7C998.4,256,1018,256,1037,234.7C1056,213,1075,171,1094,138.7C1113.6,107,1133,85,1152,74.7C1171.2,64,1190,64,1210,74.7C1228.8,85,1248,107,1267,112C1286.4,117,1306,107,1325,90.7C1344,75,1363,53,1382,85.3C1401.6,117,1421,203,1430,245.3L1440,288L1440,320L1430.4,320C1420.8,320,1402,320,1382,320C1363.2,320,1344,320,1325,320C1305.6,320,1286,320,1267,320C1248,320,1229,320,1210,320C1190.4,320,1171,320,1152,320C1132.8,320,1114,320,1094,320C1075.2,320,1056,320,1037,320C1017.6,320,998,320,979,320C960,320,941,320,922,320C902.4,320,883,320,864,320C844.8,320,826,320,806,320C787.2,320,768,320,749,320C729.6,320,710,320,691,320C672,320,653,320,634,320C614.4,320,595,320,576,320C556.8,320,538,320,518,320C499.2,320,480,320,461,320C441.6,320,422,320,403,320C384,320,365,320,346,320C326.4,320,307,320,288,320C268.8,320,250,320,230,320C211.2,320,192,320,173,320C153.6,320,134,320,115,320C96,320,77,320,58,320C38.4,320,19,320,10,320L0,320Z"></path></svg>